<?xml version="1.0" encoding="utf-8"?>
<svg version="1.1" xmlns="http://www.w3.org/2000/svg" xmlns:xlink="http://www.w3.org/1999/xlink" x="0px" y="0px"
	 viewBox="0 0 500 500" xml:space="preserve">
<g id="OBJECTS">
	<g>
		<g>
			<g>
				<path style="fill:none;stroke:#1F1D1E;stroke-width:10.5625;stroke-miterlimit:10;" d="M154.938,219.641"/>
			</g>
			<g>
				<g>
					<linearGradient id="SVGID_1_" gradientUnits="userSpaceOnUse" x1="183.7856" y1="219.6404" x2="316.1914" y2="219.6404">
						<stop  offset="0" style="stop-color:#C74DA4"/>
						<stop  offset="1" style="stop-color:#8358C7"/>
					</linearGradient>
					<path style="fill:url(#SVGID_1_);" d="M231.317,285.854c-12.696,0-24.632-4.943-33.61-13.921
						c-8.978-8.978-13.921-20.914-13.921-33.609c0-12.696,4.944-24.632,13.922-33.61l37.366-37.367
						c8.978-8.978,20.914-13.921,33.61-13.921c12.695,0,24.632,4.944,33.609,13.921c18.531,18.533,18.531,48.687,0,67.22
						l-37.366,37.366C255.949,280.911,244.013,285.854,231.317,285.854z M268.684,163.989c-9.875,0-19.159,3.845-26.141,10.828
						l-37.366,37.367c-6.982,6.982-10.828,16.266-10.828,26.141c0,9.874,3.845,19.158,10.828,26.141
						c6.982,6.982,16.266,10.827,26.141,10.827c9.874,0,19.159-3.845,26.141-10.827l37.366-37.366
						c14.413-14.414,14.413-37.868,0-52.282C287.842,167.834,278.558,163.989,268.684,163.989z"/>
				</g>
				<g>
					
						<linearGradient id="SVGID_00000114760176654113231720000017292746627904217531_" gradientUnits="userSpaceOnUse" x1="183.7856" y1="219.6407" x2="316.1914" y2="219.6407">
						<stop  offset="0" style="stop-color:#E559BD"/>
						<stop  offset="1" style="stop-color:#9765E5"/>
					</linearGradient>
					<path style="fill:url(#SVGID_00000114760176654113231720000017292746627904217531_);" d="M268.684,285.854
						c-12.696,0-24.633-4.943-33.61-13.921l-37.366-37.366c-8.978-8.977-13.921-20.914-13.921-33.61s4.944-24.632,13.922-33.609
						c8.978-8.978,20.914-13.921,33.609-13.921s24.632,4.944,33.61,13.921l37.366,37.366c18.531,18.532,18.531,48.686,0,67.219
						C293.315,280.911,281.379,285.854,268.684,285.854z M231.317,163.989c-9.874,0-19.158,3.845-26.141,10.828
						c-6.982,6.982-10.828,16.266-10.828,26.141c0,9.874,3.845,19.159,10.828,26.141l37.366,37.366
						c6.982,6.982,16.267,10.827,26.142,10.827c9.874,0,19.158-3.845,26.141-10.827c14.413-14.414,14.413-37.868,0-52.282
						l-37.366-37.366C250.476,167.835,241.191,163.989,231.317,163.989z"/>
				</g>
				<g>
					
						<linearGradient id="SVGID_00000078046300374899290210000013140073709060013980_" gradientUnits="userSpaceOnUse" x1="149.6563" y1="219.6407" x2="350.3438" y2="219.6407">
						<stop  offset="0" style="stop-color:#E559BD"/>
						<stop  offset="1" style="stop-color:#9765E5"/>
					</linearGradient>
					<path style="fill:url(#SVGID_00000078046300374899290210000013140073709060013980_);" d="M250,319.984
						c-55.33,0-100.344-45.014-100.344-100.344c0-2.917,2.364-5.281,5.281-5.281c2.917,0,5.281,2.364,5.281,5.281
						c0,49.506,40.276,89.781,89.781,89.781c49.506,0,89.781-40.275,89.781-89.781c0-49.505-40.275-89.781-89.781-89.781
						c-2.917,0-5.281-2.364-5.281-5.281s2.364-5.281,5.281-5.281c55.33,0,100.344,45.014,100.344,100.344
						C350.344,274.971,305.33,319.984,250,319.984z"/>
				</g>
				<g>
					<path style="fill:none;stroke:#1F1D1E;stroke-width:10.5625;stroke-miterlimit:10;" d="M250,124.578"/>
				</g>
			</g>
		</g>
	</g>
</g>
</svg>
